HIERARCHY
ROOT root
{
	OFFSET	0	13.1	24.9
	CHANNELS 6  Xposition Yposition Zposition Xrotation Yrotation Zrotation
	JOINT spine_1
	{
		OFFSET	0	9.99999	0
		CHANNELS 3  Xrotation Yrotation Zrotation
		JOINT spine_2
		{
			OFFSET	0	112	-10
			CHANNELS 3  Xrotation Yrotation Zrotation
			JOINT spine_3
			{
				OFFSET	0	206.5	19.3
				CHANNELS 3  Xrotation Yrotation Zrotation
				JOINT spine_4
				{
					OFFSET	0	110.4	14.6
					CHANNELS 3  Xrotation Yrotation Zrotation
					JOINT neck_1
					{
						OFFSET	0	71.8	-50.3
						CHANNELS 3  Xrotation Yrotation Zrotation
						JOINT neck_2
						{
							OFFSET	0	86.2	-25.8
							CHANNELS 3  Xrotation Yrotation Zrotation
							JOINT head_ee
							{
								OFFSET	0	179.8	-8.7
								CHANNELS 3  Xrotation Yrotation Zrotation
								End Site
								{
									OFFSET	1	0	0
								}
							}
						}
					}
					JOINT left_clavicle
					{
						OFFSET	-43.2	22.4	-70.8
						CHANNELS 3  Xrotation Yrotation Zrotation
						JOINT left_shoulder
						{
							OFFSET	-93.9	-5.79999	48.7
							CHANNELS 3  Xrotation Yrotation Zrotation
							JOINT left_elbow
							{
								OFFSET	-291.4	-30.8	15.2
								CHANNELS 3  Xrotation Yrotation Zrotation
								JOINT left_lowarm_twist
								{
									OFFSET	-110.7	-3.89999	13.6
									CHANNELS 3  Xrotation Yrotation Zrotation
									JOINT left_hand
									{
										OFFSET	-110.7	-3.89999	13.6
										CHANNELS 3  Xrotation Yrotation Zrotation
										JOINT left_ee
										{
											OFFSET	-80.8	-5.10001	12.1
											CHANNELS 3  Xrotation Yrotation Zrotation
											End Site
											{
												OFFSET	1	0	0
											}
										}
									}
								}
							}
						}
					}
					JOINT right_clavicle
					{
						OFFSET	43.2	22.4	-70.8
						CHANNELS 3  Xrotation Yrotation Zrotation
						JOINT right_shoulder
						{
							OFFSET	93.9	-5.79999	48.7
							CHANNELS 3  Xrotation Yrotation Zrotation
							JOINT right_elbow
							{
								OFFSET	291.4	-30.8	15.2
								CHANNELS 3  Xrotation Yrotation Zrotation
								JOINT right_lowarm_twist
								{
									OFFSET	110.7	-3.89999	13.6
									CHANNELS 3  Xrotation Yrotation Zrotation
									JOINT right_hand
									{
										OFFSET	110.7	-3.89999	13.6
										CHANNELS 3  Xrotation Yrotation Zrotation
										JOINT right_ee
										{
											OFFSET	80.8	-5.10001	12.1
											CHANNELS 3  Xrotation Yrotation Zrotation
											End Site
											{
												OFFSET	1	0	0
											}
										}
									}
								}
							}
						}
					}
				}
			}
		}
	}
	JOINT left_hip
	{
		OFFSET	-82.8	-127.5	0.300001
		CHANNELS 3  Xrotation Yrotation Zrotation
		JOINT left_knee
		{
			OFFSET	-28.2	-396.7	2.2
			CHANNELS 3  Xrotation Yrotation Zrotation
			JOINT left_ankle
			{
				OFFSET	-11.7	-411.3	35.4
				CHANNELS 3  Xrotation Yrotation Zrotation
				JOINT left_toes
				{
					OFFSET	0	-60	-88.6
					CHANNELS 3  Xrotation Yrotation Zrotation
					JOINT left_foot_ee
					{
						OFFSET	-22.5	-16.5	-42.2
						CHANNELS 3  Xrotation Yrotation Zrotation
						End Site
						{
							OFFSET	1	0	0
						}
					}
				}
			}
		}
	}
	JOINT right_hip
	{
		OFFSET	82.8	-127.5	0.300001
		CHANNELS 3  Xrotation Yrotation Zrotation
		JOINT right_knee
		{
			OFFSET	28.2	-396.7	2.2
			CHANNELS 3  Xrotation Yrotation Zrotation
			JOINT right_ankle
			{
				OFFSET	11.7	-411.3	35.4
				CHANNELS 3  Xrotation Yrotation Zrotation
				JOINT right_toes
				{
					OFFSET	0	-60	-88.6
					CHANNELS 3  Xrotation Yrotation Zrotation
					JOINT right_foot_ee
					{
						OFFSET	22.5	-16.5	-42.2
						CHANNELS 3  Xrotation Yrotation Zrotation
						End Site
						{
							OFFSET	1	0	0
						}
					}
				}
			}
		}
	}
}
MOTION
Frames: 14
Frame Time: 0.02
2800.94 716.97 -1473.77 8.45799708962 58.9388381508 -2.07263504684 -1.46181 -0.509041 -4.15151 -1.45226 -0.244073 -4.17543 -1.42603 0.742687 -4.1162 -1.44966 0.0838827 -4.18171 -5.30415 17.0082 10.6998 -4.94166 23.4184 13.7694 -0.0 0.0 -0.0 9.38073 17.0596 16.8891 -1.04125 -20.6087 60.7275 2.61694 -52.3448 1.2863 -79.7119 -7.78528 5.28353 -3.672 23.2231 -11.9606 -0.0 0.0 -0.0 3.61716 10.3548 -6.28168 -19.3209 7.6359 -63.7019 0.390249 10.9416 -0.037376 82.1925 4.09363 8.72849 -7.6273 -29.746 30.8926 0.0 0.0 0.0 -14.7675 43.9917 -4.11065 -6.15689 0.204091 0.922407 38.0657 -13.3377 -4.9408 -32.0165 0.0 0.0 -0.0 0.0 -0.0 31.7869 31.0258 -14.6026 -13.6826 -0.317398 -2.07082 -3.9393 5.07552 -0.598289 -27.1756 0.0 0.0 0.0 0.0 0.0 
2783.78899021 717.309 -1483.65671999 7.82840367317 58.6388915584 -1.47475816009 -1.55025 -0.477635 -4.24912 -1.54023 -0.206537 -4.27085 -1.5159 0.808329 -4.19887 -1.54047 0.135684 -4.27368 -5.32704 17.3345 11.0192 -4.94465 23.7927 14.1457 -0.0 0.0 -0.0 9.34027 17.7342 16.7298 -3.15 -19.8326 61.2905 2.45563 -50.5697 1.16012 -79.6914 -7.78268 5.28379 -3.12663 20.96 -10.0386 -0.0 0.0 -0.0 4.41261 9.96825 -7.96441 -19.0351 10.3413 -62.8551 0.380957 10.6871 -0.0356325 81.2265 3.98068 8.67739 -7.44924 -29.6274 29.8642 0.0 0.0 0.0 -12.9147 43.9639 -6.30832 -11.3204 0.298096 1.70891 37.5023 -12.2829 -4.8595 -29.6238 0.0 0.0 -0.0 0.0 -0.0 31.2518 31.2158 -14.724 -14.3385 -0.320109 -2.17141 -1.03872 7.19566 -0.158243 -29.0052 0.0 0.0 0.0 0.0 0.0 
2784.00292897 717.309 -1484.01890208 7.56705389095 57.4323820305 -1.16671709294 -1.55025 -0.477635 -4.24912 -1.54023 -0.206537 -4.27085 -1.5159 0.808329 -4.19887 -1.54047 0.135684 -4.27368 -5.32704 17.3345 11.0192 -4.94465 23.7927 14.1457 -0.0 0.0 -0.0 9.34027 17.7342 16.7298 -3.15 -19.8326 61.2905 2.45563 -50.5697 1.16012 -79.6914 -7.78268 5.28379 -3.12663 20.96 -10.0386 -0.0 0.0 -0.0 4.41261 9.96825 -7.96441 -19.0351 10.3413 -62.8551 0.380957 10.6871 -0.0356325 81.2265 3.98068 8.67739 -7.44924 -29.6274 29.8642 0.0 0.0 0.0 -12.9147 43.9639 -6.30832 -11.3204 0.298096 1.70891 37.5023 -12.2829 -4.8595 -29.6238 0.0 0.0 -0.0 0.0 -0.0 31.2518 31.2158 -14.724 -14.3385 -0.320109 -2.17141 -1.03872 7.19566 -0.158243 -29.0052 0.0 0.0 0.0 0.0 0.0 
2784.17186549 717.309 -1484.293024 7.3805969171 56.5083538594 -0.944325230613 -1.55025 -0.477635 -4.24912 -1.54023 -0.206537 -4.27085 -1.5159 0.808329 -4.19887 -1.54047 0.135684 -4.27368 -5.32704 17.3345 11.0192 -4.94465 23.7927 14.1457 -0.0 0.0 -0.0 9.34027 17.7342 16.7298 -3.15 -19.8326 61.2905 2.45563 -50.5697 1.16012 -79.6914 -7.78268 5.28379 -3.12663 20.96 -10.0386 -0.0 0.0 -0.0 4.41261 9.96825 -7.96441 -19.0351 10.3413 -62.8551 0.380957 10.6871 -0.0356325 81.2265 3.98068 8.67739 -7.44924 -29.6274 29.8642 0.0 0.0 0.0 -12.9147 43.9639 -6.30832 -11.3204 0.298096 1.70891 37.5023 -12.2829 -4.8595 -29.6238 0.0 0.0 -0.0 0.0 -0.0 31.2518 31.2158 -14.724 -14.3385 -0.320109 -2.17141 -1.03872 7.19566 -0.158243 -29.0052 0.0 0.0 0.0 0.0 0.0 
2761.95648677 719.647 -1492.80204259 7.74094847035 56.7966244361 -1.91292208215 -1.58153 -0.416753 -4.05489 -1.5724 -0.158104 -4.07315 -1.55305 0.81126 -3.9948 -1.57527 0.170722 -4.07264 -3.89064 17.1046 10.5397 -3.47802 23.254 13.4242 -0.0 0.0 -0.0 9.259 17.2901 16.6553 -5.18149 -18.6771 61.9672 2.27654 -48.4288 1.02391 -79.9431 -7.81462 5.28051 -3.23198 22.3173 -9.89585 -0.0 0.0 -0.0 4.26811 9.78418 -7.67649 -17.3838 10.833 -63.8301 0.362412 10.178 -0.0322743 83.5294 4.25131 8.79607 -7.50362 -29.7369 30.1002 0.0 0.0 0.0 -13.1445 44.4961 -5.86133 -14.4901 0.320571 2.19466 35.7216 -8.45713 -4.6026 -28.2134 0.0 0.0 -0.0 0.0 -0.0 30.0865 31.3231 -14.8577 -16.5382 -0.320792 -2.50888 1.8772 5.30482 0.281373 -32.2217 0.0 0.0 0.0 0.0 0.0 
2746.54328169 719.1 -1501.12034637 8.50283158126 56.3798187331 -3.19807254754 -1.5476 -0.375864 -3.86025 -1.53932 -0.129653 -3.87631 -1.52333 0.790239 -3.79724 -1.5434 0.18109 -3.87425 -4.25158 17.0433 10.8154 -3.84189 23.0464 13.7425 -0.0 0.0 -0.0 9.1744 16.7665 16.5824 -6.21176 -16.9909 62.4077 2.02755 -45.1202 0.842405 -78.4608 -7.62626 5.29782 -2.54279 21.4256 -6.31899 -0.0 0.0 -0.0 4.48197 10.5233 -8.07124 -16.3095 12.0365 -64.4453 0.393846 11.0399 -0.0380617 84.4168 4.35682 8.83888 -7.43321 -29.7158 29.6695 0.0 0.0 0.0 -12.0364 44.1664 -7.11723 -18.3688 0.311485 2.78958 33.9073 -4.50188 -4.35955 -26.8668 0.0 0.0 -0.0 0.0 -0.0 28.7541 30.5568 -14.9055 -18.4029 -0.311227 -2.79481 6.85985 4.16124 1.00807 -33.7355 0.0 0.0 0.0 0.0 0.0 
2727.85035 726.559 -1508.06577775 9.59342190512 57.1336602625 -4.28043179374 -1.59287 -0.33507 -3.74766 -1.58507 -0.0960901 -3.76136 -1.57194 0.798803 -3.67693 -1.59075 0.208505 -3.75681 -4.03614 16.4767 10.7046 -3.63721 22.0108 13.5189 -0.0 0.0 -0.0 9.09758 17.3586 16.3785 -7.40705 -16.5562 63.6474 1.69499 -40.0151 0.617218 -79.9425 -7.81454 5.28051 -2.22334 21.0502 -4.62869 -0.0 0.0 -0.0 4.50126 11.0417 -8.07584 -14.7645 13.1796 -65.4071 0.398944 11.1792 -0.0390439 85.1246 4.44145 8.87186 -7.49345 -29.6492 30.1264 0.0 0.0 0.0 -10.6199 43.3614 -9.29201 -22.4113 0.259208 3.40753 29.6925 -1.22209 -3.88722 -24.3441 0.0 0.0 -0.0 0.0 -0.0 26.9454 30.059 -14.6106 -20.1764 -0.2935 -3.06634 9.5494 5.90511 1.39994 -34.286 0.0 0.0 0.0 0.0 0.0 
2728.2381839 726.559 -1508.88044353 9.43159871735 56.5021464604 -4.08708271328 -1.59287 -0.33507 -3.74766 -1.58507 -0.0960901 -3.76136 -1.57194 0.798803 -3.67693 -1.59075 0.208505 -3.75681 -4.03614 16.4767 10.7046 -3.63721 22.0108 13.5189 -0.0 0.0 -0.0 9.09758 17.3586 16.3785 -7.40705 -16.5562 63.6474 1.69499 -40.0151 0.617218 -79.9425 -7.81454 5.28051 -2.22334 21.0502 -4.62869 -0.0 0.0 -0.0 4.50126 11.0417 -8.07584 -14.7645 13.1796 -65.4071 0.398944 11.1792 -0.0390439 85.1246 4.44145 8.87186 -7.49345 -29.6492 30.1264 0.0 0.0 0.0 -10.6199 43.3614 -9.29201 -22.4113 0.259208 3.40753 29.6925 -1.22209 -3.88722 -24.3441 0.0 0.0 -0.0 0.0 -0.0 26.9454 30.059 -14.6106 -20.1764 -0.2935 -3.06634 9.5494 5.90511 1.39994 -34.286 0.0 0.0 0.0 0.0 0.0 
2709.41467129 726.291 -1515.98862937 11.5233461214 55.542532829 -6.22785278549 -1.52292 -0.290942 -3.58804 -1.51576 -0.0621865 -3.59927 -1.50581 0.789205 -3.51234 -1.52295 0.224968 -3.59278 -5.61611 14.6379 11.1603 -5.26594 18.7499 13.8641 -0.0 0.0 -0.0 8.78689 20.0157 15.5275 -8.08909 -15.5241 64.4718 1.36927 -34.1471 0.420569 -79.8503 -7.80284 5.28173 -1.693 20.8375 -1.60906 -0.0 0.0 -0.0 4.20639 12.0418 -7.38544 -11.4645 14.4409 -66.5799 0.430079 12.0272 -0.0453065 85.1507 4.44458 8.87306 -7.52349 -29.6917 30.2761 0.0 0.0 0.0 -8.65701 41.7672 -11.4938 -30.4462 0.0267179 4.61772 23.8484 4.63718 -3.19834 -21.3153 0.0 0.0 -0.0 0.0 -0.0 23.9784 28.9689 -15.0176 -22.7834 -0.252206 -3.46421 17.7447 2.71664 2.48518 -33.716 0.0 0.0 0.0 0.0 0.0 
2692.3509119 726.511 -1525.7050647 13.6885288966 57.034106914 -8.25484165911 -1.50983 -0.174382 -3.39486 -1.50342 0.0418677 -3.39907 -1.50077 0.842833 -3.2933 -1.51576 0.312454 -3.38495 -6.86494 13.6335 10.1115 -6.60623 18.0229 12.7777 -0.0 0.0 -0.0 8.3872 19.3167 14.9851 -8.90648 -15.4519 64.9215 1.17355 -30.1703 0.316333 -79.7785 -7.79373 5.28267 -1.07676 17.9784 0.770547 -0.0 0.0 -0.0 4.32323 12.052 -7.6302 -9.03831 15.5681 -67.9533 0.437595 12.2311 -0.0468857 85.1705 4.44695 8.87396 -7.56381 -29.7064 30.5217 0.0 0.0 0.0 -8.52192 40.9166 -13.201 -33.4777 -0.104775 5.06427 21.0599 7.68338 -2.86141 -19.171 0.0 0.0 -0.0 0.0 -0.0 21.2325 28.2209 -15.1149 -23.1636 -0.244672 -3.52207 21.1513 0.619274 2.89801 -31.0573 0.0 0.0 0.0 0.0 0.0 
2693.24988599 726.511 -1527.54434653 13.3436306748 56.0866042111 -7.8415406272 -1.50983 -0.174382 -3.39486 -1.50342 0.0418677 -3.39907 -1.50077 0.842833 -3.2933 -1.51576 0.312454 -3.38495 -6.86494 13.6335 10.1115 -6.60623 18.0229 12.7777 -0.0 0.0 -0.0 8.3872 19.3167 14.9851 -8.90648 -15.4519 64.9215 1.17355 -30.1703 0.316333 -79.7785 -7.79373 5.28267 -1.07676 17.9784 0.770547 -0.0 0.0 -0.0 4.32323 12.052 -7.6302 -9.03831 15.5681 -67.9533 0.437595 12.2311 -0.0468857 85.1705 4.44695 8.87396 -7.56381 -29.7064 30.5217 0.0 0.0 0.0 -8.52192 40.9166 -13.201 -33.4777 -0.104775 5.06427 21.0599 7.68338 -2.86141 -19.171 0.0 0.0 -0.0 0.0 -0.0 21.2325 28.2209 -15.1149 -23.1636 -0.244672 -3.52207 21.1513 0.619274 2.89801 -31.0573 0.0 0.0 0.0 0.0 0.0 
2657.91964193 730.715 -1540.10404259 18.431216014 59.4537127976 -12.7820746797 -1.58156 -0.0910864 -2.98064 -1.57662 0.0986782 -2.9804 -1.57785 0.802986 -2.87198 -1.5892 0.339543 -2.96265 -7.61263 10.5318 7.56964 -7.48264 14.2419 9.72382 -0.0 0.0 -0.0 8.03591 20.7493 14.2696 -11.3077 -14.5421 65.2041 0.8374 -22.5297 0.166798 -79.7529 -7.79048 5.283 -0.561912 18.6802 4.1734 -0.0 0.0 -0.0 4.16421 12.4796 -7.26378 -4.75643 16.5449 -70.4451 0.523902 14.5489 -0.0668766 85.0335 4.43053 8.86767 -7.40566 -29.615 29.597 0.0 0.0 0.0 -6.9486 37.5903 -17.5029 -37.9357 -0.340688 5.70711 15.0047 14.474 -2.10867 -21.9213 0.0 0.0 -0.0 0.0 -0.0 15.7163 28.3677 -15.0254 -21.9202 -0.267884 -3.33268 26.1509 -4.11739 3.46603 -29.3882 0.0 0.0 0.0 0.0 0.0 
2653.84374271 733.72 -1548.14493594 19.1364120725 59.9535665783 -12.6320879865 -1.57644 -0.231877 -2.94922 -1.5716 -0.0438247 -2.95799 -1.56521 0.658418 -2.88418 -1.57676 0.194861 -2.95189 -7.83861 10.1121 6.39624 -7.75629 14.3392 8.50244 -0.0 0.0 -0.0 7.72467 20.5733 13.8121 -11.7661 -13.9614 65.3578 0.717085 -19.5562 0.123582 -79.3812 -7.74328 5.28765 -0.277423 18.3814 5.7712 -0.0 0.0 -0.0 4.18293 13.7669 -7.20376 -1.59525 17.1652 -71.041 0.644075 17.6957 -0.10026 85.2288 4.45395 8.87663 -7.35277 -29.6754 29.1968 0.0 0.0 0.0 -5.69612 34.9527 -18.7236 -38.838 -0.394501 5.83493 14.8684 16.7351 -2.10231 -22.7353 0.0 0.0 -0.0 0.0 -0.0 13.9296 28.3409 -15.4296 -19.6268 -0.299893 -2.98225 25.7225 -3.31287 3.41953 -28.7193 0.0 0.0 0.0 0.0 0.0 
2656.24506218 733.72 -1552.71501233 18.17696308 58.2531918602 -11.5141055582 -1.57644 -0.231877 -2.94922 -1.5716 -0.0438247 -2.95799 -1.56521 0.658418 -2.88418 -1.57676 0.194861 -2.95189 -7.83861 10.1121 6.39624 -7.75629 14.3392 8.50244 -0.0 0.0 -0.0 7.72467 20.5733 13.8121 -11.7661 -13.9614 65.3578 0.717085 -19.5562 0.123582 -79.3812 -7.74328 5.28765 -0.277423 18.3814 5.7712 -0.0 0.0 -0.0 4.18293 13.7669 -7.20376 -1.59525 17.1652 -71.041 0.644075 17.6957 -0.10026 85.2288 4.45395 8.87663 -7.35277 -29.6754 29.1968 0.0 0.0 0.0 -5.69612 34.9527 -18.7236 -38.838 -0.394501 5.83493 14.8684 16.7351 -2.10231 -22.7353 0.0 0.0 -0.0 0.0 -0.0 13.9296 28.3409 -15.4296 -19.6268 -0.299893 -2.98225 25.7225 -3.31287 3.41953 -28.7193 0.0 0.0 0.0 0.0 0.0 
